<mxfile host="app.diagrams.net" agent="Mozilla/5.0 (Windows NT 10.0; Win64; x64) AppleWebKit/537.36 (KHTML, like Gecko) Chrome/129.0.0.0 Safari/537.36 Edg/129.0.0.0" version="24.7.8">
  <diagram name="第 1 页" id="C3MW78rJ4h6a7yWVS72f">
    <mxGraphModel dx="986" dy="431" grid="1" gridSize="10" guides="1" tooltips="1" connect="1" arrows="1" fold="1" page="1" pageScale="1" pageWidth="827" pageHeight="1169" math="0" shadow="0">
      <root>
        <mxCell id="0" />
        <mxCell id="1" parent="0" />
        <mxCell id="6rJtsG7EEUAW6n4fHx3c-1" value="top Report" style="ellipse;shape=cloud;whiteSpace=wrap;html=1;" vertex="1" parent="1">
          <mxGeometry x="235" y="10" width="120" height="80" as="geometry" />
        </mxCell>
        <mxCell id="6rJtsG7EEUAW6n4fHx3c-2" value="Report提取" style="rounded=0;whiteSpace=wrap;html=1;" vertex="1" parent="1">
          <mxGeometry x="150" y="120" width="80" height="40" as="geometry" />
        </mxCell>
        <mxCell id="6rJtsG7EEUAW6n4fHx3c-3" value="Report split" style="rounded=0;whiteSpace=wrap;html=1;" vertex="1" parent="1">
          <mxGeometry x="355" y="200" width="70" height="40" as="geometry" />
        </mxCell>
        <mxCell id="6rJtsG7EEUAW6n4fHx3c-4" value="" style="endArrow=classic;html=1;rounded=0;exitX=0.16;exitY=0.55;exitDx=0;exitDy=0;exitPerimeter=0;entryX=1;entryY=0.5;entryDx=0;entryDy=0;" edge="1" parent="1" source="6rJtsG7EEUAW6n4fHx3c-1" target="6rJtsG7EEUAW6n4fHx3c-2">
          <mxGeometry width="50" height="50" relative="1" as="geometry">
            <mxPoint x="390" y="150" as="sourcePoint" />
            <mxPoint x="440" y="100" as="targetPoint" />
          </mxGeometry>
        </mxCell>
        <mxCell id="6rJtsG7EEUAW6n4fHx3c-5" value="" style="endArrow=classic;html=1;rounded=0;exitX=0.903;exitY=0.592;exitDx=0;exitDy=0;exitPerimeter=0;entryX=0.5;entryY=0;entryDx=0;entryDy=0;" edge="1" parent="1" source="6rJtsG7EEUAW6n4fHx3c-1" target="6rJtsG7EEUAW6n4fHx3c-7">
          <mxGeometry width="50" height="50" relative="1" as="geometry">
            <mxPoint x="329" y="144" as="sourcePoint" />
            <mxPoint x="240" y="140" as="targetPoint" />
          </mxGeometry>
        </mxCell>
        <mxCell id="6rJtsG7EEUAW6n4fHx3c-7" value="map" style="rhombus;whiteSpace=wrap;html=1;" vertex="1" parent="1">
          <mxGeometry x="345" y="100" width="80" height="50" as="geometry" />
        </mxCell>
        <mxCell id="6rJtsG7EEUAW6n4fHx3c-9" value="timing sum" style="rounded=0;whiteSpace=wrap;html=1;" vertex="1" parent="1">
          <mxGeometry x="150" y="240" width="80" height="40" as="geometry" />
        </mxCell>
        <mxCell id="6rJtsG7EEUAW6n4fHx3c-10" value="viol 计算" style="rounded=0;whiteSpace=wrap;html=1;" vertex="1" parent="1">
          <mxGeometry x="150" y="180" width="80" height="40" as="geometry" />
        </mxCell>
        <mxCell id="6rJtsG7EEUAW6n4fHx3c-11" value="" style="endArrow=classic;html=1;rounded=0;exitX=0.5;exitY=1;exitDx=0;exitDy=0;entryX=0.5;entryY=0;entryDx=0;entryDy=0;" edge="1" parent="1" source="6rJtsG7EEUAW6n4fHx3c-2" target="6rJtsG7EEUAW6n4fHx3c-10">
          <mxGeometry width="50" height="50" relative="1" as="geometry">
            <mxPoint x="390" y="250" as="sourcePoint" />
            <mxPoint x="440" y="200" as="targetPoint" />
          </mxGeometry>
        </mxCell>
        <mxCell id="6rJtsG7EEUAW6n4fHx3c-12" value="" style="endArrow=classic;html=1;rounded=0;exitX=0.5;exitY=1;exitDx=0;exitDy=0;entryX=0.5;entryY=0;entryDx=0;entryDy=0;" edge="1" parent="1" source="6rJtsG7EEUAW6n4fHx3c-10" target="6rJtsG7EEUAW6n4fHx3c-9">
          <mxGeometry width="50" height="50" relative="1" as="geometry">
            <mxPoint x="200" y="170" as="sourcePoint" />
            <mxPoint x="200" y="190" as="targetPoint" />
          </mxGeometry>
        </mxCell>
        <mxCell id="6rJtsG7EEUAW6n4fHx3c-13" value="" style="endArrow=classic;html=1;rounded=0;" edge="1" parent="1" target="6rJtsG7EEUAW6n4fHx3c-3">
          <mxGeometry width="50" height="50" relative="1" as="geometry">
            <mxPoint x="390" y="150" as="sourcePoint" />
            <mxPoint x="440" y="100" as="targetPoint" />
          </mxGeometry>
        </mxCell>
        <mxCell id="6rJtsG7EEUAW6n4fHx3c-15" value="接受命令行参数" style="rounded=1;whiteSpace=wrap;html=1;" vertex="1" parent="1">
          <mxGeometry x="145" y="510" width="90" height="40" as="geometry" />
        </mxCell>
        <mxCell id="6rJtsG7EEUAW6n4fHx3c-16" value="Actor" style="shape=umlActor;verticalLabelPosition=bottom;verticalAlign=top;html=1;outlineConnect=0;" vertex="1" parent="1">
          <mxGeometry x="70" y="500" width="30" height="60" as="geometry" />
        </mxCell>
        <mxCell id="6rJtsG7EEUAW6n4fHx3c-17" value="" style="endArrow=classic;html=1;rounded=0;exitX=0.5;exitY=0.5;exitDx=0;exitDy=0;exitPerimeter=0;entryX=0;entryY=0.5;entryDx=0;entryDy=0;" edge="1" parent="1" source="6rJtsG7EEUAW6n4fHx3c-16" target="6rJtsG7EEUAW6n4fHx3c-15">
          <mxGeometry width="50" height="50" relative="1" as="geometry">
            <mxPoint x="390" y="550" as="sourcePoint" />
            <mxPoint x="440" y="500" as="targetPoint" />
          </mxGeometry>
        </mxCell>
        <mxCell id="6rJtsG7EEUAW6n4fHx3c-18" value="参数解析模块" style="rounded=1;whiteSpace=wrap;html=1;" vertex="1" parent="1">
          <mxGeometry x="265" y="510" width="90" height="40" as="geometry" />
        </mxCell>
        <mxCell id="6rJtsG7EEUAW6n4fHx3c-19" value="" style="endArrow=classic;html=1;rounded=0;entryX=0;entryY=0.5;entryDx=0;entryDy=0;" edge="1" parent="1" target="6rJtsG7EEUAW6n4fHx3c-18">
          <mxGeometry width="50" height="50" relative="1" as="geometry">
            <mxPoint x="240" y="530" as="sourcePoint" />
            <mxPoint x="440" y="500" as="targetPoint" />
          </mxGeometry>
        </mxCell>
        <mxCell id="6rJtsG7EEUAW6n4fHx3c-20" value="解析判断" style="rhombus;whiteSpace=wrap;html=1;" vertex="1" parent="1">
          <mxGeometry x="374" y="505" width="80" height="50" as="geometry" />
        </mxCell>
        <mxCell id="6rJtsG7EEUAW6n4fHx3c-21" value="输出错误信息" style="ellipse;whiteSpace=wrap;html=1;" vertex="1" parent="1">
          <mxGeometry x="378" y="410" width="76" height="50" as="geometry" />
        </mxCell>
        <mxCell id="6rJtsG7EEUAW6n4fHx3c-22" value="" style="endArrow=classic;html=1;rounded=0;exitX=0.5;exitY=0;exitDx=0;exitDy=0;entryX=0.5;entryY=1;entryDx=0;entryDy=0;" edge="1" parent="1" source="6rJtsG7EEUAW6n4fHx3c-20" target="6rJtsG7EEUAW6n4fHx3c-21">
          <mxGeometry width="50" height="50" relative="1" as="geometry">
            <mxPoint x="390" y="550" as="sourcePoint" />
            <mxPoint x="440" y="500" as="targetPoint" />
          </mxGeometry>
        </mxCell>
        <mxCell id="6rJtsG7EEUAW6n4fHx3c-23" value="No" style="text;html=1;align=center;verticalAlign=middle;resizable=0;points=[];autosize=1;strokeColor=none;fillColor=none;" vertex="1" parent="1">
          <mxGeometry x="409" y="470" width="40" height="30" as="geometry" />
        </mxCell>
        <mxCell id="6rJtsG7EEUAW6n4fHx3c-24" value="" style="endArrow=classic;html=1;rounded=0;exitX=0.5;exitY=1;exitDx=0;exitDy=0;" edge="1" parent="1" source="6rJtsG7EEUAW6n4fHx3c-20">
          <mxGeometry width="50" height="50" relative="1" as="geometry">
            <mxPoint x="390" y="550" as="sourcePoint" />
            <mxPoint x="414" y="610" as="targetPoint" />
          </mxGeometry>
        </mxCell>
        <mxCell id="6rJtsG7EEUAW6n4fHx3c-25" value="yes" style="text;html=1;align=center;verticalAlign=middle;resizable=0;points=[];autosize=1;strokeColor=none;fillColor=none;" vertex="1" parent="1">
          <mxGeometry x="409" y="570" width="40" height="30" as="geometry" />
        </mxCell>
        <mxCell id="6rJtsG7EEUAW6n4fHx3c-27" value="报告sum" style="rounded=0;whiteSpace=wrap;html=1;" vertex="1" parent="1">
          <mxGeometry x="310" y="620" width="85" height="50" as="geometry" />
        </mxCell>
        <mxCell id="6rJtsG7EEUAW6n4fHx3c-28" value="报告拆解" style="rounded=0;whiteSpace=wrap;html=1;" vertex="1" parent="1">
          <mxGeometry x="425" y="620" width="85" height="50" as="geometry" />
        </mxCell>
        <mxCell id="6rJtsG7EEUAW6n4fHx3c-29" value="用户输入" style="rounded=0;whiteSpace=wrap;html=1;" vertex="1" parent="1">
          <mxGeometry x="170" y="860" width="120" height="60" as="geometry" />
        </mxCell>
        <mxCell id="6rJtsG7EEUAW6n4fHx3c-30" value="Actor" style="shape=umlActor;verticalLabelPosition=bottom;verticalAlign=top;html=1;outlineConnect=0;" vertex="1" parent="1">
          <mxGeometry x="100" y="860" width="30" height="60" as="geometry" />
        </mxCell>
        <mxCell id="6rJtsG7EEUAW6n4fHx3c-32" value="inputDir" style="ellipse;whiteSpace=wrap;html=1;" vertex="1" parent="1">
          <mxGeometry x="310" y="720" width="90" height="60" as="geometry" />
        </mxCell>
        <mxCell id="6rJtsG7EEUAW6n4fHx3c-33" value="block_name" style="ellipse;whiteSpace=wrap;html=1;" vertex="1" parent="1">
          <mxGeometry x="310" y="790" width="90" height="60" as="geometry" />
        </mxCell>
        <mxCell id="6rJtsG7EEUAW6n4fHx3c-34" value="design_top" style="ellipse;whiteSpace=wrap;html=1;" vertex="1" parent="1">
          <mxGeometry x="310" y="860" width="90" height="60" as="geometry" />
        </mxCell>
        <mxCell id="6rJtsG7EEUAW6n4fHx3c-35" value="setNa" style="ellipse;whiteSpace=wrap;html=1;" vertex="1" parent="1">
          <mxGeometry x="310" y="1030" width="90" height="60" as="geometry" />
        </mxCell>
        <mxCell id="6rJtsG7EEUAW6n4fHx3c-36" value="show_order" style="ellipse;whiteSpace=wrap;html=1;" vertex="1" parent="1">
          <mxGeometry x="310" y="940" width="90" height="60" as="geometry" />
        </mxCell>
        <mxCell id="6rJtsG7EEUAW6n4fHx3c-46" value="" style="edgeStyle=orthogonalEdgeStyle;rounded=0;orthogonalLoop=1;jettySize=auto;html=1;" edge="1" parent="1" source="6rJtsG7EEUAW6n4fHx3c-37" target="6rJtsG7EEUAW6n4fHx3c-38">
          <mxGeometry relative="1" as="geometry" />
        </mxCell>
        <mxCell id="6rJtsG7EEUAW6n4fHx3c-37" value="top报告" style="rounded=1;whiteSpace=wrap;html=1;" vertex="1" parent="1">
          <mxGeometry x="245" y="1260" width="120" height="60" as="geometry" />
        </mxCell>
        <mxCell id="6rJtsG7EEUAW6n4fHx3c-38" value="正则表达式" style="rhombus;whiteSpace=wrap;html=1;" vertex="1" parent="1">
          <mxGeometry x="250" y="1370" width="110" height="60" as="geometry" />
        </mxCell>
        <mxCell id="6rJtsG7EEUAW6n4fHx3c-39" value="corner" style="ellipse;whiteSpace=wrap;html=1;" vertex="1" parent="1">
          <mxGeometry x="133" y="1470" width="70" height="50" as="geometry" />
        </mxCell>
        <mxCell id="6rJtsG7EEUAW6n4fHx3c-41" value="block_name" style="ellipse;whiteSpace=wrap;html=1;" vertex="1" parent="1">
          <mxGeometry x="233" y="1470" width="70" height="50" as="geometry" />
        </mxCell>
        <mxCell id="6rJtsG7EEUAW6n4fHx3c-42" value="pin" style="ellipse;whiteSpace=wrap;html=1;" vertex="1" parent="1">
          <mxGeometry x="318" y="1470" width="70" height="50" as="geometry" />
        </mxCell>
        <mxCell id="6rJtsG7EEUAW6n4fHx3c-43" value="value" style="ellipse;whiteSpace=wrap;html=1;" vertex="1" parent="1">
          <mxGeometry x="417" y="1470" width="70" height="50" as="geometry" />
        </mxCell>
        <mxCell id="6rJtsG7EEUAW6n4fHx3c-44" value="" style="endArrow=classic;html=1;rounded=0;exitX=0.5;exitY=1;exitDx=0;exitDy=0;entryX=0.5;entryY=0;entryDx=0;entryDy=0;" edge="1" parent="1" source="6rJtsG7EEUAW6n4fHx3c-38" target="6rJtsG7EEUAW6n4fHx3c-39">
          <mxGeometry width="50" height="50" relative="1" as="geometry">
            <mxPoint x="380" y="1440" as="sourcePoint" />
            <mxPoint x="430" y="1390" as="targetPoint" />
          </mxGeometry>
        </mxCell>
        <mxCell id="6rJtsG7EEUAW6n4fHx3c-45" value="" style="endArrow=classic;html=1;rounded=0;exitX=0.5;exitY=1;exitDx=0;exitDy=0;entryX=0.5;entryY=0;entryDx=0;entryDy=0;" edge="1" parent="1" source="6rJtsG7EEUAW6n4fHx3c-38" target="6rJtsG7EEUAW6n4fHx3c-43">
          <mxGeometry width="50" height="50" relative="1" as="geometry">
            <mxPoint x="315" y="1440" as="sourcePoint" />
            <mxPoint x="178" y="1480" as="targetPoint" />
          </mxGeometry>
        </mxCell>
      </root>
    </mxGraphModel>
  </diagram>
</mxfile>
